<?xml version="1.0" encoding="UTF-8" standalone="no"?>
<!-- Created with Inkscape (http://www.inkscape.org/) -->

<svg
   xmlns:dc="http://purl.org/dc/elements/1.1/"
   xmlns:cc="http://creativecommons.org/ns#"
   xmlns:rdf="http://www.w3.org/1999/02/22-rdf-syntax-ns#"
   xmlns:svg="http://www.w3.org/2000/svg"
   xmlns="http://www.w3.org/2000/svg"
   xmlns:sodipodi="http://sodipodi.sourceforge.net/DTD/sodipodi-0.dtd"
   xmlns:inkscape="http://www.inkscape.org/namespaces/inkscape"
   width="210mm"
   height="297mm"
   viewBox="0 0 210 297"
   version="1.1"
   id="svg4738"
   inkscape:version="0.92.3 (2405546, 2018-03-11)"
   sodipodi:docname="person_silhouette_2.svg">
  <defs
     id="defs4732" />
  <sodipodi:namedview
     id="base"
     pagecolor="#ffffff"
     bordercolor="#666666"
     borderopacity="1.0"
     inkscape:pageopacity="0.0"
     inkscape:pageshadow="2"
     inkscape:zoom="0.7"
     inkscape:cx="377.52347"
     inkscape:cy="617.14286"
     inkscape:document-units="mm"
     inkscape:current-layer="layer1"
     showgrid="false"
     inkscape:window-width="1407"
     inkscape:window-height="898"
     inkscape:window-x="-4"
     inkscape:window-y="0"
     inkscape:window-maximized="0" />
  <metadata
     id="metadata4735">
    <rdf:RDF>
      <cc:Work
         rdf:about="">
        <dc:format>image/svg+xml</dc:format>
        <dc:type
           rdf:resource="http://purl.org/dc/dcmitype/StillImage" />
        <dc:title></dc:title>
      </cc:Work>
    </rdf:RDF>
  </metadata>
  <g
     inkscape:label="Layer 1"
     inkscape:groupmode="layer"
     id="layer1">
    <ellipse
       style="fill:none;stroke:#000000;stroke-width:1;stroke-miterlimit:4;stroke-dasharray:none;stroke-opacity:1"
       id="path4788"
       cx="100.54166"
       cy="77.962791"
       rx="17.386906"
       ry="18.331844" />
    <path
       style="fill:none;stroke:#000000;stroke-width:3.77952766;stroke-miterlimit:4;stroke-dasharray:none;stroke-opacity:1"
       d="M 308.57227 388.23438 C 280.08085 388.23438 257.14258 411.17069 257.14258 439.66211 L 257.14258 609.66211 C 257.14258 637.9393 279.74028 660.7348 307.93359 661.07617 C 307.69078 662.74554 307.55859 664.45262 307.55859 666.19141 L 307.55859 827.41992 C 307.55859 846.78604 323.1495 862.37695 342.51562 862.37695 L 424.90039 862.37695 C 444.26651 862.37695 459.85742 846.78604 459.85742 827.41992 L 459.85742 666.19141 C 459.85742 664.3087 459.70572 662.4626 459.42188 660.66211 C 484.78854 657.45508 504.28516 635.92693 504.28516 609.66211 L 504.28516 439.66211 C 504.28516 411.17069 481.34884 388.23438 452.85742 388.23438 L 308.57227 388.23438 z "
       transform="scale(0.26458333)"
       id="rect4790" />
  </g>
</svg>
